#!OML:ASF G:\JayActor3\Patient Classification 1\Patient 1\Session 2\male.ASF
:FULLY-SPECIFIED
:DEGREES
1966
root 11.722 17.0171 -6.11967 1031.85 85.0652 667.324
lowerback -1.7766 -0.375518 1.77805
upperback 6.35837 -0.590748 1.92717
thorax 7.64098 -0.191493 0.983281
lowerneck 4.83232 -8.03101 -7.77766
upperneck 5.17227 -11.3101 11.1851
head 1.82595 -5.65688 4.49894
rclavicle 8.19987e-015 4.04527e-014
rhumerus -29.5168 16.7752 -93.9699
rradius 46.8996
rwrist -1.01072
rhand -19.0379 0.324933
rfingers 7.12502
rthumb 7.26857 -29.5302
lclavicle 8.19987e-015 4.04527e-014
lhumerus -42.6906 -12.5799 89.3292
lradius 47.4353
lwrist 22.0176
lhand -23.8332 19.2642
lfingers 7.12502
lthumb 2.63846 49.2276
rfemur -0.204986 -0.403205 27.4356
rtibia 37.9511
rfoot -12.3738 -5.59016
rtoes 10.0555
lfemur -24.8765 8.35668 -21.892
ltibia 22.8229
lfoot -0.472298 4.05691
ltoes -2.30088
1967
root 11.8425 17.0179 -6.12731 1034.74 85.1067 670.297
lowerback -1.66965 -0.358421 1.49476
upperback 6.34864 -0.542577 1.80096
thorax 7.56804 -0.181902 1.01321
lowerneck 4.64572 -7.78865 -7.50932
upperneck 5.3628 -10.9661 10.9251
head 1.85006 -5.47369 4.37884
rclavicle 5.2181e-016 1.56046e-014
rhumerus -29.4976 16.6646 -94.0142
rradius 46.9026
rwrist -1.0208
rhand -19.0177 0.264126
rfingers 7.12502
rthumb 7.28809 -29.5904
lclavicle 5.2181e-016 1.56046e-014
lhumerus -42.2141 -12.6905 89.1776
lradius 47.1657
lwrist 22.0351
lhand -23.9657 19.3242
lfingers 7.12502
lthumb 2.51045 49.2892
rfemur -0.958656 -0.466347 26.9839
rtibia 39.8793
rfoot -11.1994 -5.65057
rtoes 11.0237
lfemur -24.3504 8.43509 -22.1033
ltibia 22.86
lfoot -0.736396 4.06863
ltoes -1.63809
1968
root 11.9602 17.0186 -6.13512 1037.68 85.1443 673.307
lowerback -1.56519 -0.338941 1.21093
upperback 6.35378 -0.491466 1.6719
thorax 7.51257 -0.170243 1.0409
lowerneck 4.45256 -7.55553 -7.2572
upperneck 5.55238 -10.6366 10.6907
head 1.88039 -5.29782 4.26804
rclavicle -2.73329e-016 1.44616e-014
rhumerus -29.449 16.5641 -94.0518
rradius 46.9204
rwrist -1.0442
rhand -19.0022 0.201615
rfingers 7.12502
rthumb 7.30307 -29.6524
lclavicle -2.73329e-016 1.44616e-014
lhumerus -41.6677 -12.8347 89.0308
lradius 46.9164
lwrist 22.0549
lhand -24.0936 19.3874
lfingers 7.12502
lthumb 2.38693 49.3538
rfemur -1.80949 -0.482643 26.525
rtibia 41.9275
rfoot -9.93708 -5.81006
rtoes 11.8253
lfemur -23.8436 8.51152 -22.3106
ltibia 22.9088
lfoot -1.02248 4.02404
ltoes -1.14823
1969
root 12.0751 17.0191 -6.14297 1040.69 85.1706 676.391
lowerback -1.46497 -0.314718 0.930212
upperback 6.37268 -0.434293 1.53861
thorax 7.47426 -0.154817 1.06304
lowerneck 4.26092 -7.33207 -7.02762
upperneck 5.73547 -10.3228 10.494
head 1.91468 -5.13013 4.17171
rclavicle 2.34814e-015 -1.04362e-015
rhumerus -29.3789 16.4731 -94.0881
rradius 46.9561
rwrist -1.07215
rhand -19.0085 0.158042
rfingers 7.12502
rthumb 7.29697 -29.6961
lclavicle 2.34814e-015 -1.04362e-015
lhumerus -41.0648 -13.0112 88.8859
lradius 46.7103
lwrist 22.0739
lhand -24.2122 19.4575
lfingers 7.12502
lthumb 2.27244 49.4251
rfemur -2.74128 -0.439812 26.07
rtibia 44.0691
rfoot -8.63614 -6.05034
rtoes 12.3801
lfemur -23.3647 8.60562 -22.5179
ltibia 22.9793
lfoot -1.34067 3.93503
ltoes -0.836785
1970
root 12.1871 17.0192 -6.15042 1043.76 85.1814 679.535
lowerback -1.36442 -0.285571 0.652176
upperback 6.40531 -0.370447 1.40038
thorax 7.45035 -0.135389 1.07913
lowerneck 4.07699 -7.12264 -6.80893
upperneck 5.90398 -10.0296 10.3271
head 1.94862 -4.97314 4.08594
rclavicle -1.00417e-014 9.18137e-015
rhumerus -29.2887 16.3859 -94.128
rradius 47.0031
rwrist -1.10176
rhand -19.0484 0.15491
rfingers 7.12502
rthumb 7.25841 -29.7006
lclavicle -1.00417e-014 9.18137e-015
lhumerus -40.4181 -13.2174 88.7365
lradius 46.5656
lwrist 22.0916
lhand -24.3128 19.5202
lfingers 7.12502
lthumb 2.17525 49.4888
rfemur -3.73219 -0.324819 25.6339
rtibia 46.2719
rfoot -7.38966 -6.33037
rtoes 12.677
lfemur -22.9153 8.72895 -22.7266
ltibia 23.0793
lfoot -1.68961 3.82035
ltoes -0.724629
1971
root 12.2962 17.0185 -6.15724 1046.87 85.175 682.709
lowerback -1.25894 -0.253214 0.378426
upperback 6.4503 -0.302041 1.25585
thorax 7.43667 -0.112917 1.08661
lowerneck 3.89093 -6.9244 -6.59408
upperneck 6.06474 -9.75262 10.1808
head 1.98439 -4.82423 4.00656
rclavicle -8.83349e-015 4.47266e-015
rhumerus -29.1801 16.2988 -94.1775
rradius 47.0563
rwrist -1.12196
rhand -19.1282 0.199295
rfingers 7.12502
rthumb 7.18144 -29.6589
lclavicle -8.83349e-015 4.47266e-015
lhumerus -39.7388 -13.4498 88.5784
lradius 46.4944
lwrist 22.1107
lhand -24.4022 19.583
lfingers 7.12502
lthumb 2.08894 49.5525
rfemur -4.76616 -0.143051 25.2238
rtibia 48.4999
rfoot -6.36049 -6.62119
rtoes 12.6016
lfemur -22.4966 8.87422 -22.9378
ltibia 23.2123
lfoot -2.06642 3.70833
ltoes -0.812793
1972
root 12.4024 17.0164 -6.16319 1049.95 85.1554 685.864
lowerback -1.14346 -0.219276 0.110915
upperback 6.50273 -0.231206 1.10269
thorax 7.42497 -0.0883292 1.08173
lowerneck 3.71211 -6.73715 -6.36687
upperneck 6.22115 -9.49066 10.0362
head 2.01954 -4.68279 3.92572
rclavicle 3.8763e-015 3.37934e-015
rhumerus -29.063 16.2043 -94.2433
rradius 47.111
rwrist -1.12718
rhand -19.2344 0.270311
rfingers 7.12502
rthumb 7.07889 -29.5913
lclavicle 3.8763e-015 3.37934e-015
lhumerus -39.0405 -13.7124 88.4085
lradius 46.4997
lwrist 22.1298
lhand -24.4668 19.6463
lfingers 7.12502
lthumb 2.02656 49.6164
rfemur -5.82585 0.0896769 24.842
rtibia 50.7111
rfoot -5.68399 -6.90332
rtoes 12.4086
lfemur -22.1013 9.02066 -23.1505
ltibia 23.3741
lfoot -2.46922 3.62994
ltoes -0.995366
1973
root 12.5059 17.0126 -6.16831 1052.95 85.1251 688.952
lowerback -1.02109 -0.185938 -0.147727
upperback 6.5609 -0.161202 0.942766
thorax 7.41537 -0.0631647 1.06465
lowerneck 3.51107 -6.556 -6.15853
upperneck 6.26997 -9.20811 9.57714
head 2.24819 -4.55404 4.15727
rclavicle -4.69629e-015 -1.33186e-014
rhumerus -28.941 16.102 -94.3241
rradius 47.1663
rwrist -1.11787
rhand -19.3638 0.3725
rfingers 7.12502
rthumb 6.95401 -29.4933
lclavicle -4.69629e-015 -1.33186e-014
lhumerus -38.3284 -14.0004 88.2269
lradius 46.58
lwrist 22.1424
lhand -24.5008 19.722
lfingers 7.12502
lthumb 1.99368 49.6924
rfemur -6.89945 0.352224 24.486
rtibia 52.8612
rfoot -5.46371 -7.2049
rtoes 12.1392
lfemur -21.7202 9.14173 -23.3608
ltibia 23.5527
lfoot -2.88891 3.60631
ltoes -1.22214
1974
root 12.607 17.0074 -6.17291 1055.81 85.0886 691.89
lowerback -0.889824 -0.158075 -0.39083
upperback 6.62546 -0.099028 0.779667
thorax 7.40757 -0.0405645 1.03489
lowerneck 3.33745 -6.37491 -5.89046
upperneck 6.42597 -8.95348 9.40871
head 2.28237 -4.4158 4.04592
rclavicle -1.78906e-015 1.98785e-016
rhumerus -28.8162 15.9958 -94.4168
rradius 47.2268
rwrist -1.09537
rhand -19.4955 0.476377
rfingers 7.12502
rthumb 6.82681 -29.3936
lclavicle -1.78906e-015 1.98785e-016
lhumerus -37.6007 -14.3072 88.037
lradius 46.7231
lwrist 22.1535
lhand -24.5135 19.7988
lfingers 7.12502
lthumb 1.98145 49.7694
rfemur -7.97013 0.632485 24.1557
rtibia 54.9042
rfoot -5.70403 -7.54973
rtoes 12.018
lfemur -21.334 9.21811 -23.5627
ltibia 23.7291
lfoot -3.33386 3.64944
ltoes -1.33379
1975
root 12.7065 17.0014 -6.17745 1058.45 85.0498 694.625
lowerback -0.754049 -0.136288 -0.610131
upperback 6.69229 -0.0462465 0.616595
thorax 7.3998 -0.0209681 0.991025
lowerneck 3.17291 -6.18952 -5.60607
upperneck 6.58811 -8.69265 9.21438
head 2.3152 -4.27458 3.9233
rclavicle -8.84592e-015 -3.37934e-015
rhumerus -28.6986 15.885 -94.5173
rradius 47.2928
rwrist -1.06588
rhand -19.6207 0.572192
rfingers 7.12502
rthumb 6.70594 -29.3016
lclavicle -8.84592e-015 -3.37934e-015
lhumerus -36.8644 -14.6351 87.8477
lradius 46.9148
lwrist 22.1747
lhand -24.5074 19.8651
lfingers 7.12502
lthumb 1.98729 49.8356
rfemur -9.02659 0.923799 23.8483
rtibia 56.7987
rfoot -6.35387 -7.92229
rtoes 12.1766
lfemur -20.9277 9.23575 -23.7516
ltibia 23.8836
lfoot -3.79746 3.7566
ltoes -1.36035
1976
root 12.8049 16.9953 -6.18242 1060.82 85.0101 697.104
lowerback -0.616336 -0.122782 -0.801114
upperback 6.76383 -0.00628146 0.460192
thorax 7.39629 -0.00601613 0.937302
lowerneck 3.00865 -6.00015 -5.30848
upperneck 6.75914 -8.42574 8.98729
head 2.34922 -4.13047 3.78742
rclavicle -4.02539e-015 4.77083e-015
rhumerus -28.5823 15.7769 -94.6146
rradius 47.3634
rwrist -1.03662
rhand -19.7317 0.65269
rfingers 7.12502
rthumb 6.59882 -29.2245
lclavicle -4.02539e-015 4.77083e-015
lhumerus -36.1098 -14.9717 87.6643
lradius 47.1365
lwrist 22.2132
lhand -24.4953 19.909
lfingers 7.12502
lthumb 1.999 49.8794
rfemur -10.058 1.22503 23.5623
rtibia 58.5105
rfoot -7.27943 -8.26739
rtoes 12.4855
lfemur -20.4911 9.1982 -23.9228
ltibia 24.0016
lfoot -4.27318 3.91367
ltoes -1.30224
1977
root 12.9024 16.99 -6.18809 1062.86 84.9695 699.251
lowerback -0.475081 -0.116353 -0.957259
upperback 6.83643 0.0217798 0.315476
thorax 7.39218 0.0049313 0.875396
lowerneck 2.8358 -5.80803 -5.008
upperneck 6.95125 -8.15525 8.734
head 2.39154 -3.98449 3.64237
rclavicle 1.03368e-014 3.77691e-015
rhumerus -28.4666 15.6696 -94.7012
rradius 47.4317
rwrist -1.01384
rhand -19.82 0.719746
rfingers 7.12502
rthumb 6.51354 -29.1601
lclavicle 1.03368e-014 3.77691e-015
lhumerus -35.3347 -15.306 87.4892
lradius 47.3707
lwrist 22.2648
lhand -24.4677 19.9326
lfingers 7.12502
lthumb 2.02569 49.9028
rfemur -11.06 1.54384 23.3036
rtibia 60.016
rfoot -8.32298 -8.52613
rtoes 12.8731
lfemur -20.0273 9.11747 -24.0702
ltibia 24.0797
lfoot -4.75063 4.1037
ltoes -1.20532
1978
root 12.9992 16.9858 -6.19443 1064.53 84.9294 701.029
lowerback -0.329181 -0.118649 -1.08284
upperback 6.90909 0.0354645 0.18945
thorax 7.3858 0.0101191 0.814901
lowerneck 2.65791 -5.61458 -4.71597
upperneck 7.16349 -7.8834 8.45976
head 2.44244 -3.83814 3.4924
rclavicle -2.38542e-015 -6.55989e-015
rhumerus -28.3514 15.5732 -94.7692
rradius 47.4911
rwrist -1.00492
rhand -19.8867 0.773518
rfingers 7.12502
rthumb 6.44922 -29.1083
lclavicle -2.38542e-015 -6.55989e-015
lhumerus -34.5382 -15.6131 87.3226
lradius 47.6055
lwrist 22.3203
lhand -24.395 19.9466
lfingers 7.12502
lthumb 2.0959 49.916
rfemur -12.0288 1.88489 23.0759
rtibia 61.3038
rfoot -9.32684 -8.63097
rtoes 13.3337
lfemur -19.5416 9.01268 -24.19
ltibia 24.128
lfoot -5.23096 4.30197
ltoes -1.0599
1979
root 13.0951 16.9824 -6.20124 1065.81 84.8897 702.413
lowerback -0.180523 -0.129978 -1.18122
upperback 6.98039 0.0342119 0.0858665
thorax 7.3767 0.00887145 0.761643
lowerneck 2.47002 -5.41875 -4.44949
upperneck 7.40048 -7.60985 8.18258
head 2.5063 -3.69124 3.34706
rclavicle -9.74045e-015 5.96354e-015
rhumerus -28.2342 15.4939 -94.8153
rradius 47.5377
rwrist -1.01342
rhand -19.93 0.805096
rfingers 7.12502
rthumb 6.40738 -29.078
lclavicle -9.74045e-015 5.96354e-015
lhumerus -33.718 -15.8712 87.1636
lradius 47.8332
lwrist 22.3687
lhand -24.2859 19.969
lfingers 7.12502
lthumb 2.20122 49.9374
rfemur -12.97 2.25119 22.8836
rtibia 62.374
rfoot -10.2102 -8.57119
rtoes 13.6269
lfemur -19.0546 8.9006 -24.2796
ltibia 24.1677
lfoot -5.69822 4.4895
ltoes -0.972419
